<?xml version="1.0" encoding="UTF-8"?>
<svg xmlns="http://www.w3.org/2000/svg" xmlns:xlink="http://www.w3.org/1999/xlink" width="19px" height="18px" viewBox="0 0 19 18" version="1.1">
<g id="surface1">
<path style=" stroke:none;fill-rule:nonzero;fill:rgb(0%,0%,0%);fill-opacity:1;" d="M 19 9.203125 C 19 14.179688 15.226562 17.71875 9.65625 17.71875 C 4.3125 17.71875 0 13.824219 0 9 C 0 4.175781 4.3125 0.28125 9.65625 0.28125 C 12.257812 0.28125 14.445312 1.140625 16.128906 2.5625 L 13.503906 4.84375 C 10.066406 1.847656 3.671875 4.097656 3.671875 9 C 3.671875 12.039062 6.363281 14.503906 9.65625 14.503906 C 13.480469 14.503906 14.910156 12.03125 15.136719 10.746094 L 9.65625 10.746094 L 9.65625 7.75 L 18.847656 7.75 C 18.9375 8.195312 19 8.625 19 9.203125 Z M 19 9.203125 "/>
</g>
</svg>
