<?xml version="1.0" encoding="UTF-8"?>
<svg xmlns="http://www.w3.org/2000/svg" xmlns:xlink="http://www.w3.org/1999/xlink" width="17px" height="20px" viewBox="0 0 17 20" version="1.1">
<g id="surface1">
<path style=" stroke:none;fill-rule:nonzero;fill:rgb(0%,0%,0%);fill-opacity:1;" d="M 9.03125 0.253906 C 4.488281 0.253906 0 2.925781 0 7.25 C 0 10 1.753906 11.5625 2.816406 11.5625 C 3.253906 11.5625 3.507812 10.484375 3.507812 10.179688 C 3.507812 9.816406 2.457031 9.042969 2.457031 7.53125 C 2.457031 4.390625 5.167969 2.164062 8.671875 2.164062 C 11.6875 2.164062 13.917969 3.675781 13.917969 6.453125 C 13.917969 8.527344 12.976562 12.417969 9.921875 12.417969 C 8.820312 12.417969 7.875 11.714844 7.875 10.707031 C 7.875 9.230469 9.042969 7.800781 9.042969 6.277344 C 9.042969 3.691406 4.886719 4.160156 4.886719 7.285156 C 4.886719 7.941406 4.980469 8.667969 5.3125 9.265625 C 4.703125 11.585938 3.453125 15.042969 3.453125 17.433594 C 3.453125 18.171875 3.574219 18.898438 3.652344 19.636719 C 3.804688 19.785156 3.726562 19.769531 3.957031 19.695312 C 6.1875 17 6.109375 16.472656 7.117188 12.945312 C 7.664062 13.859375 9.070312 14.351562 10.1875 14.351562 C 14.886719 14.351562 17 10.308594 17 6.664062 C 17 2.785156 13.203125 0.253906 9.03125 0.253906 Z M 9.03125 0.253906 "/>
</g>
</svg>
